<svg width="39" height="24" viewBox="0 0 39 24" fill="none" xmlns="http://www.w3.org/2000/svg">
<path d="M29.8499 19.5H28.4557C28.2619 19.4932 28.0787 19.4097 27.9464 19.268C27.8141 19.1262 27.7434 18.9378 27.7499 18.744V12.006C27.7434 11.8122 27.8141 11.6238 27.9464 11.482C28.0787 11.3403 28.2619 11.2568 28.4557 11.25H37.9739C38.0118 11.2513 38.0491 11.2602 38.0835 11.2761C38.118 11.2919 38.1489 11.3144 38.1746 11.3423C38.2003 11.3702 38.2201 11.403 38.2331 11.4386C38.246 11.4743 38.2517 11.5121 38.2499 11.55V18C38.2627 18.3845 38.1224 18.7583 37.8599 19.0395C37.5974 19.3207 37.2341 19.4863 36.8497 19.5H34.7497" fill="#333333"/>
<path d="M29.8499 19.5H28.4557C28.2619 19.4932 28.0787 19.4097 27.9464 19.268C27.8141 19.1262 27.7434 18.9378 27.7499 18.744V12.006C27.7434 11.8122 27.8141 11.6238 27.9464 11.482C28.0787 11.3403 28.2619 11.2568 28.4557 11.25H37.9739C38.0118 11.2513 38.0491 11.2602 38.0835 11.2761C38.118 11.2919 38.1489 11.3144 38.1746 11.3423C38.2003 11.3702 38.2201 11.403 38.2331 11.4386C38.246 11.4743 38.2517 11.5121 38.2499 11.55V18C38.2627 18.3845 38.1224 18.7583 37.8599 19.0395C37.5974 19.3207 37.2341 19.4863 36.8497 19.5H34.7497" stroke="#333333" stroke-miterlimit="10"/>
<path d="M6.75 0.75H26.25C26.6478 0.75 27.0294 0.908036 27.3107 1.18934C27.592 1.47064 27.75 1.85218 27.75 2.25V13.5H5.25V2.25C5.25 1.85218 5.40804 1.47064 5.68934 1.18934C5.97064 0.908036 6.35218 0.75 6.75 0.75Z" stroke="#333333" stroke-miterlimit="10"/>
<path d="M0.75 6.75H12" stroke="#333333" stroke-linecap="round" stroke-linejoin="round"/>
<path d="M1.5 9H12.75" stroke="#333333" stroke-linecap="round" stroke-linejoin="round"/>
<path d="M3.75 11.25H15.75" stroke="#333333" stroke-linecap="round" stroke-linejoin="round"/>
<path d="M5.25 16.5H7.5" stroke="#333333" stroke-linecap="round" stroke-linejoin="round"/>
<path d="M27.75 16.5H21" stroke="#333333" stroke-linecap="round" stroke-linejoin="round"/>
<path d="M30 13.5H30.75" stroke="#333333" stroke-linecap="round" stroke-linejoin="round"/>
<path d="M32.625 23.25C34.0747 23.25 35.25 22.0747 35.25 20.625C35.25 19.1753 34.0747 18 32.625 18C31.1753 18 30 19.1753 30 20.625C30 22.0747 31.1753 23.25 32.625 23.25Z" stroke="#333333" stroke-miterlimit="10"/>
<path d="M38.2365 11.016C38.2468 11.0429 38.2502 11.0718 38.2464 11.1004C38.2427 11.1289 38.2318 11.156 38.2149 11.1792C38.198 11.2025 38.1755 11.2211 38.1496 11.2335C38.1236 11.2459 38.095 11.2515 38.0663 11.25H28.0162C27.9455 11.2496 27.8778 11.2212 27.8279 11.1711C27.778 11.1209 27.75 11.053 27.75 10.9823V6.26925C27.7502 6.19777 27.7787 6.12929 27.8293 6.07882C27.88 6.02834 27.9485 6 28.02 6H35.736C35.8347 6.00006 35.9313 6.02889 36.0139 6.08297C36.0965 6.13705 36.1615 6.21404 36.201 6.3045L38.2365 11.016Z" stroke="#333333" stroke-miterlimit="10"/>
<path d="M10.875 23.25C12.3247 23.25 13.5 22.0747 13.5 20.625C13.5 19.1753 12.3247 18 10.875 18C9.42525 18 8.25 19.1753 8.25 20.625C8.25 22.0747 9.42525 23.25 10.875 23.25Z" stroke="#333333" stroke-miterlimit="10"/>
<path d="M8.25 19.5H6.75C6.35218 19.5 5.97064 19.342 5.68934 19.0607C5.40804 18.7794 5.25 18.3978 5.25 18V13.5H27.75V19.5H13.5" stroke="#333333" stroke-miterlimit="10"/>
<path d="M35.25 16.5H38.25" stroke="#333333" stroke-linecap="round" stroke-linejoin="round"/>
</svg>
