<svg width="31" height="23" viewBox="0 0 31 23" fill="none" xmlns="http://www.w3.org/2000/svg">
<path d="M28.8212 0.133301H2.17878C0.977533 0.133301 0 1.11083 0 2.31208V20.6879C0 21.8891 0.977533 22.8666 2.17878 22.8666H28.8212C30.0225 22.8666 31 21.8891 31 20.6879V2.31208C31 1.11083 30.0225 0.133301 28.8212 0.133301ZM29.9667 20.6879C29.9667 21.3192 29.4531 21.8333 28.8212 21.8333H2.17878C1.5469 21.8333 1.03333 21.3192 1.03333 20.6879V2.31208C1.03333 1.68072 1.5469 1.16663 2.17878 1.16663H28.8212C29.4531 1.16663 29.9667 1.68072 29.9667 2.31208V20.6879Z" fill="#333333"/>
<path d="M2.5835 19.25H8.26683V15.1167H2.5835V19.25ZM3.61683 16.15H7.2335V18.2167H3.61683V16.15Z" fill="#333333"/>
<path d="M9.2998 19.25H14.9831V15.1167H9.2998V19.25ZM10.3331 16.15H13.9498V18.2167H10.3331V16.15Z" fill="#333333"/>
<path d="M16.0166 19.25H21.6999V15.1167H16.0166V19.25ZM17.0499 16.15H20.6666V18.2167H17.0499V16.15Z" fill="#333333"/>
<path d="M22.7334 19.25H28.4167V15.1167H22.7334V19.25ZM23.7667 16.15H27.3834V18.2167H23.7667V16.15Z" fill="#333333"/>
<path d="M3.74858 10.4667H6.84858H7.61841H10.7184C11.3606 10.4667 11.8835 9.94387 11.8835 9.30165V5.16832V4.39848C11.8835 3.75626 11.3606 3.2334 10.7184 3.2334H6.84858H3.74858C3.10636 3.2334 2.5835 3.75626 2.5835 4.39848V9.30165C2.5835 9.94387 3.10636 10.4667 3.74858 10.4667ZM5.6835 7.36673H3.61683V6.3334H5.6835V7.36673ZM3.61683 9.30165V8.40006H5.6835V9.30165C5.6835 9.3466 5.69176 9.38948 5.69693 9.4334H3.74858C3.67573 9.4334 3.61683 9.3745 3.61683 9.30165ZM10.8502 7.36673H8.7835V6.46515C8.7835 6.3923 8.8424 6.3334 8.91525 6.3334H10.7184C10.7634 6.3334 10.8062 6.32513 10.8502 6.31997V7.36673ZM10.7184 9.4334H8.77006C8.77523 9.38948 8.7835 9.3466 8.7835 9.30165V8.40006H10.8502V9.30165C10.8502 9.3745 10.7913 9.4334 10.7184 9.4334ZM10.7184 4.26673C10.7913 4.26673 10.8502 4.32563 10.8502 4.39848V5.16832C10.8502 5.24117 10.7913 5.30007 10.7184 5.30007H8.91525C8.27303 5.30007 7.75016 5.82293 7.75016 6.46515V9.30165C7.75016 9.3745 7.69126 9.4334 7.61841 9.4334H6.84858C6.77573 9.4334 6.71683 9.3745 6.71683 9.30165V4.39848C6.71683 4.32563 6.77573 4.26673 6.84858 4.26673H10.7184ZM3.74858 4.26673H5.69693C5.69176 4.31065 5.6835 4.35353 5.6835 4.39848V5.30007H3.61683V4.39848C3.61683 4.32563 3.67573 4.26673 3.74858 4.26673Z" fill="#333333"/>
<path d="M16.5333 4.26673H21.1833C21.469 4.26673 21.6999 4.03527 21.6999 3.75007C21.6999 3.46487 21.469 3.2334 21.1833 3.2334H16.5333C16.2476 3.2334 16.0166 3.46487 16.0166 3.75007C16.0166 4.03527 16.2476 4.26673 16.5333 4.26673Z" fill="#333333"/>
<path d="M27.9001 3.2334H23.2501C22.9643 3.2334 22.7334 3.46487 22.7334 3.75007C22.7334 4.03527 22.9643 4.26673 23.2501 4.26673H27.9001C28.1858 4.26673 28.4167 4.03527 28.4167 3.75007C28.4167 3.46487 28.1858 3.2334 27.9001 3.2334Z" fill="#333333"/>
<path d="M16.5333 6.84974H17.0499C17.3357 6.84974 17.5666 6.61827 17.5666 6.33307C17.5666 6.04787 17.3357 5.81641 17.0499 5.81641H16.5333C16.2476 5.81641 16.0166 6.04787 16.0166 6.33307C16.0166 6.61827 16.2476 6.84974 16.5333 6.84974Z" fill="#333333"/>
<path d="M19.1168 5.81641C18.831 5.81641 18.6001 6.04787 18.6001 6.33307C18.6001 6.61827 18.831 6.84974 19.1168 6.84974H20.1501C20.4358 6.84974 20.6668 6.61827 20.6668 6.33307C20.6668 6.04787 20.4358 5.81641 20.1501 5.81641H19.1168Z" fill="#333333"/>
<path d="M23.2502 6.33307C23.2502 6.04787 23.0192 5.81641 22.7335 5.81641H22.2169C21.9311 5.81641 21.7002 6.04787 21.7002 6.33307C21.7002 6.61827 21.9311 6.84974 22.2169 6.84974H22.7335C23.0192 6.84974 23.2502 6.61827 23.2502 6.33307Z" fill="#333333"/>
<path d="M25.8332 6.84974C26.1189 6.84974 26.3499 6.61827 26.3499 6.33307C26.3499 6.04787 26.1189 5.81641 25.8332 5.81641H24.7999C24.5142 5.81641 24.2832 6.04787 24.2832 6.33307C24.2832 6.61827 24.5142 6.84974 24.7999 6.84974H25.8332Z" fill="#333333"/>
<path d="M27.5331 5.96662C27.4396 6.06478 27.3833 6.19912 27.3833 6.33345C27.3833 6.46778 27.4396 6.60212 27.5331 6.70028C27.6308 6.79328 27.76 6.85012 27.9 6.85012C28.0343 6.85012 28.1686 6.79328 28.2668 6.70028C28.3598 6.60212 28.4166 6.46778 28.4166 6.33345C28.4166 6.19912 28.3598 6.06478 28.2668 5.96662C28.0705 5.77545 27.7243 5.77545 27.5331 5.96662Z" fill="#333333"/>
</svg>
